# xmcd
#
# Track frame offsets:
#	150
#	21935
#	40197
#	62512
#	84682
#	107447
#	124170
#	140852
#	163892
#	187505
#	218767
#	246435
#	273847
#	292632
#
# Disc length: 4222 seconds
#
# Revision: 0
# Processed by: cddbd v1.4PL0 Copyright (c) Steve Scherf et al.
# Submitted via: dBpowerAMP V4.0
#
DISCID=c1107c0e
DTITLE=Roberta Flack - Best of Artist Selection
DYEAR=1900
DGENRE=Cabaret
TTITLE0=Killing Me Softly With His Song
TTITLE1=Jesse
TTITLE2=No Tears ( In The End)
TTITLE3=I'm The Girl
TTITLE4=River
TTITLE5=Conversation Lole
TTITLE6=When You Smile
TTITLE7=Tryin' Times
TTITLE8=Compared To What
TTITLE9=Angelitos Negros
TTITLE10=Our Ages Or Our Hearts
TTITLE11=I Told Jesus
TTITLE12=Hey, That's No Way To Say Goodbye
TTITLE13=The First Time Ever I Saw Your Face
EXTD=
EXTT0=
EXTT1=
EXTT2=
EXTT3=
EXTT4=
EXTT5=
EXTT6=
EXTT7=
EXTT8=
EXTT9=
EXTT10=
EXTT11=
EXTT12=
EXTT13=
PLAYORDER=
